<?xml version="1.0" encoding="utf-8"?>
<!-- Generator: Adobe Illustrator 24.2.3, SVG Export Plug-In . SVG Version: 6.00 Build 0)  -->
<svg version="1.1" id="Calque_1" xmlns="http://www.w3.org/2000/svg" xmlns:xlink="http://www.w3.org/1999/xlink" x="0px" y="0px"
	 viewBox="0 0 1080 246.6" style="enable-background:new 0 0 1080 246.6;" xml:space="preserve">
<style type="text/css">
	.st0{fill:#A9A9A9;}
</style>
<path class="st0" d="M0,22.2c7-3.7,14.5-2.9,21.9-2.9c7.2,0,14.3-0.1,21.5,0.1c6.6,0.2,8.2,1.9,8.2,8.5c0,40.4,0,80.8,0.1,121.3
	c0,2.3,1,4.6,1.5,6.9c2-1.4,4.2-2.5,5.9-4.2c19.5-19.6,38.8-39.3,58.2-59c8-8.1,15.7-16.5,24.1-24.2c2.7-2.5,6.9-4.2,10.6-4.5
	c8.6-0.7,17.3-0.4,26-0.2c5.7,0.1,6.8,1.5,6.8,7.4c0,4.9,0,9.8,0,14.7c0,5.5-1.6,7.1-7.2,7.2c-6.2,0.1-12.4-0.3-18.5,0.2
	c-2.9,0.2-6.3,1.4-8.3,3.4c-14.1,14.1-27.9,28.4-41.7,42.7c-4.5,4.7-4.3,5.3-0.1,10.5c16,19.8,32,39.6,48.2,59.2
	c1.7,2.1,5.2,3.3,8,3.7c4.8,0.6,9.6,0.2,14.5,0.2c3.4,0,5.2,1.6,5.1,5.3c-0.1,5.9-0.1,11.8,0,17.7c0,4-2.1,5.9-5.9,5.9
	c-9.3,0.1-18.7,0.1-28,0c-5.5-0.1-8.4-4.5-11.4-8.2c-17.3-21.3-34.6-42.7-51.8-64.1c-2.8-3.5-5-3.6-8.1-0.3
	c-8,8.3-16.2,16.5-24.3,24.7c-3.4,3.5-5.4,12-3.3,16.3c0.6,1.3,2.7,2.4,4.3,2.5c3.5,0.4,7,0.2,10.5,0.2c3.8,0,5.9,1.6,5.9,5.7
	c-0.1,5.6,0,11.1,0,16.7c0,4.2-2,6.6-6.4,6.6c-19.5,0-39,0.1-58.5-0.2c-2.6,0-5.2-2.3-7.9-3.5c0-7.4,0-14.8,0-22.2
	c4.3-3.9,9.6-3,14.6-3.1c7.3-0.1,7.7-0.4,7.7-7.6c0-49.8,0-99.6,0-149.5c0-7.3-0.4-7.5-7.7-7.7c-5-0.1-10.4,1.3-14.6-2.9
	C0,37.7,0,30,0,22.2z"/>
<path class="st0" d="M479,246.6c-1.5-0.8-2.9-2.1-4.5-2.3c-27.9-4.4-49-19-63.4-43.3c-11.4-19.3-14.6-40.5-11.2-62.6
	c5.2-33.7,23.5-57.7,54.3-71.1c16.5-7.2,33.9-8.2,51.8-5c22.3,4,39.9,15.2,53.8,32.8c9.2,11.6,15.4,24.7,17.1,39.6
	c0.8,6.6,1.9,13.3,1.7,19.9c-0.7,31.4-13.3,56.7-38.9,74.9c-11.3,8-23.9,13-37.7,14.9c-1.8,0.2-3.4,1.5-5.1,2.3
	C491,246.6,485,246.6,479,246.6z M548.4,153.8c0.8-14.3-3.4-26.9-11.2-38.5c-15.8-23.5-45.8-32.7-71-22.3
	c-34.5,14.2-45.7,58.1-30.8,89c15.4,31.8,49.4,43.2,79,29.2C538.1,200.1,547.8,179.4,548.4,153.8z"/>
<path class="st0" d="M1080,201.1c-0.7,1.2-1.9,2.4-2.2,3.7c-4.1,22.3-18,34.7-39.4,38.5c-15.2,2.7-30.3,2.1-43.9-6.6
	c-13.7-8.8-21.1-21.6-21.3-37.8c-0.5-32.2-0.2-64.3-0.2-96.5c0-8.9,0-8.9-8.8-8.9c-3.5,0-7,0-10.5,0c-4.2-0.1-6.6-2-6.5-6.5
	c0-5.9,0-11.8,0-17.7c0-3.5,1.6-5.3,5.2-5.2c5,0,10-0.1,15,0c4.1,0.1,5.7-1.8,5.7-5.8c-0.1-10.4,0-20.9,0-31.3
	c0-5.8,1.3-7.3,6.9-7.5c4.8-0.2,9.7-0.2,14.5,0c5.7,0.3,7.3,2.1,7.4,7.8c0.1,10.1,0.2,20.2,0,30.3c-0.1,4.8,1.5,6.7,6.4,6.6
	c11-0.2,22-0.1,33,0c8.1,0.1,8.9,0.9,8.9,8.9c0,4.4,0.1,8.8,0,13.1c-0.2,5.2-2.2,7.3-7.4,7.4c-11.5,0.1-23,0.2-34.5,0
	c-4.8-0.1-6.4,1.6-6.4,6.4c0.2,31.2-0.4,62.3,0.3,93.5c0.3,15.2,6.4,20.1,19.9,22.8c11.2,2.3,22.8-4.3,26.3-15.1
	c1.4-4.2,1.9-8.8,2-13.3c0.3-9.4,0.2-18.9,0-28.3c-0.1-4.7,1.9-6.8,6.5-6.8c4.8,0.1,9.7-0.3,14.5,0.1c3,0.3,5.8,1.8,8.7,2.8
	C1080,170.8,1080,186,1080,201.1z"/>
<path class="st0" d="M907,0c1.4,1,2.8,2.2,4.3,3c6.6,3.2,12.4,12.9,11.2,18.7c-2,9.8-10,17.2-18.7,17.4c-8,0.1-16.5-6.2-18.4-13.6
	c-2.3-9.1,1.6-18.1,9.4-22.4c1.5-0.8,2.8-2.1,4.2-3.1C901.7,0,904.3,0,907,0z"/>
<path class="st0" d="M660.1,190.1c2.4-6.4,4.5-11.5,6.3-16.6c7-20.8,14-41.6,20.9-62.5c4.7-14,9.4-27.9,14.1-41.9
	c0.2-0.5,0.3-1,0.6-1.4c4.7-6.7,11.6-3.2,17.6-3.9c4-0.5,6.5,1.9,7.8,5.7c6.8,20,13.7,40,20.5,60c6.2,18.2,12.4,36.5,18.6,54.7
	c0.6,1.7,1.7,3.1,3.1,5.6c1.4-2.6,2.7-4.2,3.2-6c5-16.4,9.7-32.8,14.7-49.1c3.7-12.2,7.3-24.4,11.4-36.4c1.4-4.2-0.4-4.6-3.6-4.8
	C780,92.7,780,92.6,780,77.1c0-13,0-13,12.8-13c16.7,0,33.3,0,50,0c8.5,0,9.2,0.8,9.2,9.1c0,4.4-0.1,8.8,0,13.1
	c0,4.4-2.3,6.6-6.3,6.9c-3.1,0.3-6.3,0.4-9.5,0.1c-4.2-0.4-6,1.8-7.2,5.4c-10.2,30.2-20.4,60.3-30.6,90.5c-5.4,16-11,32-16.4,48
	c-1.2,3.5-3.4,5.2-7,5.1c-3.7-0.1-7.4-0.3-11,0c-5,0.4-7.3-2.3-8.7-6.5c-10.2-29.4-20.4-58.8-30.6-88.3c-2.6-7.6-5-15.3-7.6-22.9
	c-0.5-1.4-1.9-2.5-2.9-3.7c-0.9,1.2-2.2,2.3-2.7,3.7c-7.7,22.3-15.3,44.7-23,67c-5.2,15-10.5,30-15.8,45c-1.3,3.7-3.6,5.9-7.8,5.7
	c-3.7-0.2-7.3-0.2-11,0c-4.7,0.3-7.1-2.4-8.5-6.3c-8.5-25.2-16.8-50.5-25.4-75.8c-7.1-20.9-14.5-41.8-21.5-62.7
	c-1.1-3.3-2.9-4.1-5.8-4.1c-3.2,0.1-6.3,0-9.5,0c-3.9,0-6.4-1.8-6.6-5.9c-0.2-5.4-0.5-10.8-0.2-16.1c0.3-6.1,1.6-7.3,7.7-7.3
	c15.8-0.1,31.7,0,47.5,0c4,0,8,0,12,0c3.5,0,5.3,1.7,5.3,5.2c0,5.9,0,11.8,0.1,17.7c0.1,4.3-2.3,6.1-6.1,6.4c-3,0.2-6,0.1-9,0.1
	c-3.6,0-5.1,0.8-3.7,5.1c7.6,23.6,14.8,47.3,22.2,70.9c1.7,5.4,3.2,10.9,4.9,16.4C657.6,186.9,658.5,187.8,660.1,190.1z"/>
<path class="st0" d="M375.9,167.2c0,12.8,0,25.6,0,38.4c0,7,0.6,7.6,7.3,7.7c15.6,0.1,13.6-1.2,13.7,14.3
	c0.1,14.6,1.5,14.8-14.3,14.6c-16.2-0.1-32.3,0-48.5,0c-6.1,0-7.8-1.6-7.9-7.7c-0.1-5.2,0-10.4,0-15.7c0-3.7,1.7-5.6,5.5-5.6
	c3.5,0.1,7,0,10.5,0c2.9,0,4.2-1.3,4.2-4.3c-0.1-27.6,0.7-55.3-0.5-82.8c-0.7-17.1-13-32.5-32.4-36.7c-20.9-4.5-37.8,1.7-51.1,17.9
	c-7.4,9.1-10.5,20.1-10.6,31.8c-0.2,22.4-0.1,44.8,0,67.2c0,6.3,0.7,7,6.9,7c15.5,0.1,14.1-1.3,14.2,14.5c0,14.4,0,14.4-14.3,14.4
	c-16.3,0-32.7,0-49,0c-6.3,0-7.4-1-7.5-7.3c-0.1-5.2,0.1-10.4,0-15.7c-0.1-4.4,1.9-6.1,6-6c3,0.1,6-0.1,9,0c3.8,0.1,5.4-1.5,5.3-5.4
	c-0.2-6.7,0-13.5,0-20.2c0-29.1,0-58.3,0-87.4c0-6.7,0-6.9-6.6-6.7c-16.5,0.3-13.5-2.3-13.6-14c0-2.9,0.2-5.7,0-8.6
	c-0.4-4.9,2.2-6.8,6.5-6.8c12.2-0.1,24.3,0,36.5-0.1c5.3,0,6.1,3.5,6.5,7.6c0.7,6.6,1.2,7,6.5,3c17.8-13.6,38.4-16.4,59.3-13.5
	c26.8,3.7,45.7,18.6,54.5,45.4c3.4,10.4,3.9,21,3.9,31.8C375.9,148,375.9,157.6,375.9,167.2z"/>
<path class="st0" d="M918.7,139.8c0,22.2,0,44.4,0,66.7c0,6.4,0.5,6.9,6.9,6.9c14.7,0.1,13.3-1.3,13.4,13.7c0,3.2,0,6.4-0.1,9.6
	c0,3.7-2.1,5.6-5.6,5.6c-23.7,0.1-47.3,0.1-71,0c-4.1,0-6-2.7-6.1-6.5c-0.2-5.6-0.1-11.1,0-16.7c0.1-3.9,2.1-5.7,6-5.7
	c6.8,0.1,13.7-0.1,20.5,0c4,0.1,5.6-1.5,5.6-5.7c-0.1-36.4-0.1-72.7,0-109.1c0-4.1-1.6-5.2-5.4-5.1c-18.2,0.5-14.5-1.9-14.8-15.2
	c0-1.9,0-3.7,0-5.6c0-7.5,0.9-8.5,8.2-8.6c11.2-0.1,22.3-0.1,33.5,0c7.3,0.1,8.8,1.6,8.8,9C918.7,95.3,918.7,117.5,918.7,139.8z"/>
</svg>
