<?xml version="1.0" encoding="utf-8"?>
<!-- Generator: Adobe Illustrator 24.2.3, SVG Export Plug-In . SVG Version: 6.00 Build 0)  -->
<svg version="1.1" id="Calque_1" xmlns="http://www.w3.org/2000/svg" xmlns:xlink="http://www.w3.org/1999/xlink" x="0px" y="0px"
	 viewBox="0 0 1136.7 473.4" style="enable-background:new 0 0 1136.7 473.4;" xml:space="preserve">
<style type="text/css">
	.st0{fill:#A9A9A9;}
</style>
<path class="st0" d="M747.8,237.6c1.6,7.2,2.7,14.5,10.1,17.6c4.2,1.8,9.3,3.2,13.7,2.6c23.2-3.1,43.3-13.7,61.3-28.2
	c11.7-9.5,23.3-19.5,33.4-30.7c6.5-7.2,10-17,14.8-25.7c1.7-3.2,2.8-6.7,4.5-10c3.7-7.1,14.8-8.6,19.9-2.4c1.5,1.8,2,5.3,1.4,7.7
	c-1.1,4.5-3.3,8.7-5,13c-0.7,1.8-1.3,3.6-1.1,6.2c1.4-1,2.8-1.9,4.1-3c12.6-10.4,26-19.7,41.8-24.6c4.1-1.3,8.5-2.1,12.7-2.1
	c10.5,0,17.3,7.9,16.1,18.4c-1,8.4-3.9,16.2-9,22.9c-1.7,2.3-4.2,4.3-6.8,5.5c-3.8,1.8-7.9,1.6-11.2-1.5c-3.3-3.2-3.9-7.2-2.3-11.5
	c0.7-1.9,1.5-3.7,2.2-5.6c1.5-4.2,0.6-6.1-3.8-5.5c-5.5,0.8-11.3,2-15.9,4.8c-25.9,15.7-44.3,38.2-57.8,65.1
	c-3.2,6.4-6.6,12.7-10.2,18.8c-3.7,6.2-7.7,7.7-12.7,5.4c-5.4-2.5-7.6-8-5.5-14.2c2.2-6.6,4.7-13.1,7.1-19.7
	c0.6-1.6,1.1-3.3,0.7-5.8c-1.4,0.9-2.9,1.9-4.3,2.8c-14.4,9.1-28.4,19.2-43.4,27.2c-17.2,9-36,13.1-55.5,9.3
	c-11.9-2.3-19.2-9.9-22.2-21.7c-0.6-2.2-1.5-4.3-2.6-7.4c-4.3,2.9-7.9,5.4-11.5,7.8c-9.1,6-17.8,13-27.5,17.7
	c-6.6,3.2-14.7,4.3-22.2,4.2c-18-0.2-29-13.1-26.7-31c1.4-10.7,4.1-21.2,6.2-31.8c1.1-5.4,3.2-11.2-2.1-15.3
	c-4.9-3.8-9.9-0.5-14.5,1.7c-31.8,15.5-53.3,40.6-67.3,72.6c-2.2,5-4.6,9.6-10,11.8c-4.5,1.8-9,2.9-13.2-0.5
	c-4.3-3.5-6.3-8.1-5.2-13.7c1.6-8,3.3-15.9,5-23.9c0.3-1.2,0.3-2.5,0.7-5.1c-4.8,3-8.6,5.4-12.4,7.9c-17.5,11.6-34.8,23.5-55.2,29.3
	c-10.6,3.1-21.3,6.9-32.7,4.2c-18.3-4.4-27.5-18.5-23.9-36.9c4.1-21.6,16-38.8,31.2-53.9c11.7-11.6,24.3-21.8,40.4-26.5
	c10.3-3,20.6-3.9,30.6,1c11.6,5.6,14.8,17.6,7.8,28.4c-4.7,7.2-10.9,12.5-19.1,15.1c-5.5,1.8-10.7-0.1-12.5-4.2
	c-1.8-4.2-0.1-8.4,4.9-11.7c0.1-0.1,0.3-0.2,0.4-0.3c1.6-1.9,3.2-3.7,4.8-5.6c-2.8-0.6-6-2.5-8.2-1.6c-7.6,3.1-15.5,6.2-22.1,10.9
	c-15.6,11.1-25.3,26.6-30.1,45.1c-0.7,2.9-1.1,6-0.9,8.9c0.8,9.6,7.2,13.7,16.6,11.5c35.1-8,62.5-28.1,85-55.1
	c6-7.1,9.2-16.8,12.8-25.6c16.8-42.2,36.7-82.6,64.4-118.9c11.9-15.6,24.6-30.6,40.2-42.8c13.4-10.4,28.2-17.5,45.2-19.5
	c13.1-1.5,24,8.2,23.9,21.3c-0.2,18.4-7.9,34.1-17.4,49.1c-22.2,34.9-51.7,62.7-85.5,86.2c-10.9,7.6-21.5,15.6-31.9,23.9
	c-11.4,9-16.3,22-20,35.6c6.2-5.7,12.3-11.5,18.7-17c13.1-11.2,27.3-20.7,44.2-25.3c8.7-2.4,17.5-3.1,26-0.1
	c13,4.5,18.8,16,15.2,30.1c-1.7,6.7-4.7,13.1-6.6,19.8c-1.7,6.2-3.7,12.5-3.9,18.9c-0.4,11.2,7.3,15.9,16.8,10
	c10.8-6.7,21.6-13.9,30.9-22.6c13.7-12.8,25.9-27.2,39-40.7c15.4-15.8,33.5-27.3,55.6-31.1c6.5-1.1,13.7-0.8,20,0.9
	c11.5,3.1,15.9,13.9,11.4,25c-5.2,13-15.7,21.3-26.9,28.5c-16.7,10.7-34.9,17.7-54.2,21.9c-2.4,0.5-4.8,1.4-7.2,2.2
	C748.8,236.9,748.5,237.2,747.8,237.6z M592.1,152.8c0.4,0.3,0.7,0.6,1.1,0.9c2-1.3,4.1-2.4,6-3.8c21.5-15,41.2-31.9,59-51.1
	c17.1-18.4,31.9-38.3,41.4-61.7c1.7-4.3,4.3-9.2-0.1-12.9c-4.3-3.5-9.1-1-13.6,1.1c-0.6,0.3-1.1,0.7-1.6,1.1
	c-6,4.9-12.4,9.5-18,14.9c-28.1,27.5-49.1,60.1-66.6,95C597,141.8,594.6,147.3,592.1,152.8z M758.3,214.7c0.4,0.5,0.8,1.1,1.1,1.6
	c1.5-0.3,3.1-0.4,4.5-0.9c16.8-5,31.6-13.5,44.4-25.5c2.7-2.5,6.5-5.8,3.8-9.7c-2.7-4.1-7.5-2.3-10.9-0.4
	c-7.4,4.1-14.9,8.2-21.4,13.5C772.2,199.7,765.5,207.5,758.3,214.7z"/>
<path class="st0" d="M301.1,189.6c1.7-2.4,3.3-4.5,4.7-6.7c5-7.6,13.4-9.5,21.3-4.9c5.4,3.1,6.7,7.5,3.9,13.1
	c-4.8,9.3-10.1,18.3-14.3,27.8c-4.7,10.6-8.5,21.6-12.2,32.5c-1.4,4-1.5,8.6,2.2,11.6c3.5,2.9,7.6,2.2,11.8,0.7
	c19.1-7.2,32.9-21,45.8-35.8c13.2-15.1,21-33.4,30.2-50.9c4.1-7.7,7.9-15.6,12.2-24c-6.7-0.3-12.6-0.6-18.5-1
	c-2.6-0.2-5.3-0.6-7.9-1c-3.9-0.6-7.7-1.3-8.9-5.9c-1.1-4.4,1.3-10.3,5.9-12.1c3.9-1.5,8.3-2.1,12.5-2.2c7.5-0.2,14.9,0.3,22.4,0.6
	c3.8,0.2,5.9-1.7,7.7-5c7.9-15.2,15.7-30.4,24.3-45.2c3.1-5.3,8.1-9.7,13-13.5c2.8-2.2,7-3.2,10.7-3.3c8.5-0.3,13.5,6.7,9.9,14.4
	c-2.4,5.2-6.2,10.3-10.6,14.1c-9.3,8-14.4,18.4-19.7,30.6c4.9-1.3,8.5-2.5,12.3-3.3c10-2.2,20-4.8,30.2-5.9
	c5.1-0.6,10.8,1.3,15.9,3.1c5.2,1.8,6.9,6.5,6.5,11.7c-0.4,6.7-9.6,15.9-16.2,16.5c-2.9,0.2-5.1-0.7-5-4c0.1-5.6-3.7-7.1-7.9-6.5
	c-8,1.1-16,2.8-23.9,4.5c-3.2,0.7-6.3,2.4-9.5,2.9c-9.9,1.7-15.7,7.6-19.9,16.5c-11.5,24.1-24.3,47.7-35.2,72.1
	c-4.6,10.3-5.9,22.1-7.9,33.3c-1.3,7,1.4,13.4,5.9,19c1.9,2.3,4.1,4.5,5.6,7c1.1,1.8,2.3,5.2,1.5,6.1c-1.6,1.7-4.6,3-6.8,2.8
	c-15.5-1.4-28.5-15.7-28.8-31.4c-0.1-4.3,0.6-8.6,0.9-12.9c0.1-1.6,0.3-3.1-0.6-5.2c-1.4,1.2-2.8,2.5-4.2,3.7
	c-12.1,10.1-23.8,20.6-36.4,30.1c-4.6,3.4-10.8,5.1-16.6,6.3c-16.6,3.3-29.2-7.4-29.4-24.5c0-2.2,0-4.4,0-6.2
	c-4.4,3.8-8.7,7.1-12.5,10.9c-11.2,11.4-24,20.4-38.3,27.5c-6.4,3.1-13.2,4.6-20.3,3.4c-11.2-1.8-17.6-7.8-20.3-19
	c-0.2-0.8-0.5-1.5-1.1-3.3c-2.7,2.9-4.9,5.1-7.1,7.5c-9.8,11-20.2,21.2-34,27.2c-17.5,7.7-33.2,5.3-42.5-7.1
	c-7.5-10-11-21.5-8.4-33.8c2.5-11.8,6.6-23.3,9.9-34.9c0.6-2,1-4,1.6-6.7c-1.7,0.5-2.5,0.6-3.1,1c-28.1,19.2-50.7,43.3-64.7,74.8
	c-1.4,3.2-2.2,6.6-3.1,10c-2.1,7.9-5.9,14.5-13.1,18.6c-8.4,4.9-16.8,1.8-18-7.8c-1.1-8.8-0.7-17.9,0.3-26.7
	c6.6-58,22.9-113.2,47.7-165.9c13.2-28.1,29.3-54.5,51.6-76.5c10.6-10.4,22.8-18,37.4-21.9c14.9-4.1,29.4,5.3,29.4,21.1
	c0,14.8-3.6,28.5-9.4,42c-17.4,40.5-46.8,71.4-79,100.2c-7.7,6.9-15.5,13.6-23.7,19.8c-5.8,4.3-9.3,9.5-11.1,16.4
	c-2.4,9.1-5.3,18-8,27c0.4,0.2,0.8,0.5,1.3,0.7c1.2-1.4,2.6-2.7,3.7-4.1c15.8-19.7,32.6-38.2,54-52c9.5-6.1,19.4-12.2,31.4-10.5
	c4.8,0.7,9.5,2.6,13.8,4.9c3.4,1.7,4.5,5.2,2.9,9.1c-4.7,11.3-9.6,22.6-14.1,34c-3.9,9.9-7.5,19.9-7.2,30.9c0,1.2,0,2.3,0.2,3.5
	c1.7,14.8,11,19.9,23.7,12.2c18.6-11.3,34.2-25.6,45.1-44.8c14.3-25.1,32.8-46.5,58.8-60.1c7.4-3.9,15.6-6.4,23.8-8.4
	c9.5-2.3,17.7,1,23.6,9.2C299.4,187.9,300,188.5,301.1,189.6z M52.9,196.6c0.5,0.3,1,0.6,1.5,0.9c1.9-1.5,3.9-2.8,5.8-4.4
	c19.7-16.5,37.4-34.9,53.5-54.8c13.2-16.4,24.7-33.9,31.2-54c2-6,3-12.6,3.3-18.9c0.3-6.4-4.4-9.3-10.4-7c-3.4,1.3-6.9,3-9.4,5.4
	c-7.1,6.7-14.5,13.3-20.4,21c-22.2,29.2-37.1,62.4-49.8,96.6C56.3,186.4,54.6,191.5,52.9,196.6z M211.6,269.8
	c0.4,0.2,0.9,0.3,1.3,0.5c-0.1,7.4,3.5,10.2,10.4,7.8c3.1-1.1,6.2-2.5,8.9-4.3c18-11.7,32.2-27.1,43.8-45c3.4-5.2,6.2-11,8.2-16.9
	c2.2-6.9-2.4-11.9-9.7-11c-3.6,0.4-7.2,1.5-10.4,3.1c-19.7,10-33.4,26-44.1,44.7C216.3,255.3,214.4,262.8,211.6,269.8z"/>
<path class="st0" d="M831.6,323.3c-39.8,2-88.3,4.3-136.7,7c-29.2,1.7-58.4,3.8-87.5,6.3c-25.3,2.2-50.6,5-75.9,7.8
	c-26.1,2.9-52.2,5.7-78.2,9.1c-31.6,4.1-63.2,8.5-94.7,13.2c-22.7,3.4-45.3,7.3-67.9,11.2c-28,4.8-56,9.6-83.9,14.9
	c-22,4.1-44,8.8-65.9,13.4c-31.2,6.6-62.3,13.3-93.5,20.1c-13.6,3-27.2,6.3-40.7,9.5c-6,1.4-7.2,0.5-6.3-5.8
	c0.6-4.3,1.4-8.5,2.6-12.7c3.3-11.1,9-18.9,22-21.3c29.5-5.6,58.7-13,88.1-19.1c24.2-5,48.6-9.4,73-13.4
	c27.9-4.6,55.8-8.6,83.8-12.5c27.8-3.9,55.6-7.7,83.5-11.1c25.9-3.2,51.8-5.9,77.8-8.7c25.3-2.7,50.6-5.4,75.9-7.7
	c17.5-1.7,35.1-2.9,52.7-4.2c26.4-2,52.7-4,79.1-5.7c21.6-1.3,43.2-2.2,64.7-3.2c62.3-3,124.7-3.9,187.1-2.9
	c16.5,0.3,32.9,1.1,49.4,1.8c5.7,0.2,7.5,3.6,4.3,8.3c-3,4.6-7.6,6-12.9,6C900.9,323.3,870.6,323.3,831.6,323.3z"/>
<path class="st0" d="M1061.2,218.4c-9,8.4-16.7,15.9-24.7,23.1c-14.8,13.4-30.1,26.2-47.5,36.2c-6,3.4-12.3,5.8-19.4,5.4
	c-10.4-0.6-18.2-7.6-17-18c1.1-9.4,3.4-19.1,7.3-27.7c8-18,17.3-35.5,26.4-53c3.5-6.6,9.5-11.1,16.2-14.2c4.4-2,9-3.3,13.1,0.3
	c3.6,3.1,3.3,9.4,0.3,14.8c-10.9,19.2-21.7,38.5-32.5,57.8c-1.8,3.2-3.3,6.6-4.4,10c-0.5,1.5-0.4,4.3,0.5,5c1.3,1,4,1.2,5.4,0.6
	c4.2-2,8.3-4.3,12-7c19.7-14.3,35.4-32.6,51.6-50.5c4.5-4.9,8.7-10.1,13.1-15c7.3-8.1,16.4-12.9,27.4-13.7
	c9.2-0.7,13.3,4.6,10.8,13.4c-7.6,26.5-15.2,53-22.7,79.5c-0.8,3-1.2,6.1-2,10.1c3.1-0.4,5.5-0.7,7.9-1.1
	c13.2-2.2,26.4-3.6,39.4,0.9c8.9,3,13,10.1,14,18.9c1,8.6-0.9,16.4-9.2,21c-5.1,2.8-10.8,3-15.7,0.1c-5.2-3-5.1-8.5-4.2-13.8
	c0.9-5.9-1-8.2-7-8.8c-9.5-0.9-18.5,1.6-27.3,4.6c-1.6,0.5-3,2.9-3.6,4.7c-6.4,18.9-11.4,38.3-19,56.6
	c-12.9,31.4-28.5,61.6-51.9,86.8c-13.9,15-30.5,25.4-51.5,27.8c-19.2,2.2-34.1-5.7-40.8-22.2c-3.5-8.6-2.4-17.4-0.5-26
	c9.1-40.5,31.7-72,63.3-98.3c19.7-16.4,40.4-30.8,64.1-40.7c1.4-0.6,2.7-1.2,4.2-1.6c7.1-2.1,10.7-6.9,12.3-14.1
	c3.4-15.7,7.5-31.3,11.2-46.9C1061,222.1,1061,221,1061.2,218.4z M1043.4,304.5c-0.5-0.3-1-0.7-1.5-1c-1.5,0.5-3.1,1-4.5,1.7
	c-18.2,9.1-35.6,19.5-50.3,33.7c-17.8,17.2-35.7,34.4-46.9,57.1c-6.8,13.8-12.4,28.1-13.5,43.5c-0.7,10.3,6.2,16.6,16.5,16
	c2.6-0.1,5.3-0.8,7.8-1.5c16.1-4.6,28-15.2,37.3-28.5c18.5-26.3,34.1-54.3,44.6-84.9C1037,328.9,1040,316.6,1043.4,304.5z"/>
</svg>
