<?xml version="1.0" encoding="utf-8"?>
<!-- Generator: Adobe Illustrator 24.2.3, SVG Export Plug-In . SVG Version: 6.00 Build 0)  -->
<svg version="1.1" id="Layer_1" xmlns="http://www.w3.org/2000/svg" xmlns:xlink="http://www.w3.org/1999/xlink" x="0px" y="0px"
	 viewBox="0 0 2500 585" style="enable-background:new 0 0 2500 585;" xml:space="preserve">
<style type="text/css">
	.st0{fill:#DA552F;}
	.st1{fill:#FFFFFF;}
</style>
<g id="Page-1">
	<g id="product-hunt-logo-horizontal-orange">
		<path id="Fill-1" class="st0" d="M585.5,292.5C585.5,454.1,454.6,585,293,585S0.5,454.1,0.5,292.5S131.4,0,293,0
			S585.5,130.9,585.5,292.5"/>
		<path id="Fill-3" class="st1" d="M332,292.5h-82.9v-87.8H332c24.1,0,43.9,19.7,43.9,43.9S356.2,292.5,332,292.5 M332,146.3H190.7
			v292.5h58.5V351H332c56.5,0,102.4-45.8,102.4-102.4S388.6,146.3,332,146.3"/>
		<path id="Fill-5" class="st0" d="M892.9,256.7c0-16.1-12.4-25.8-28.5-25.8h-43.1v51.4h43.1C880.5,282.3,892.9,272.5,892.9,256.7z
			 M780.5,390V195h89.7c41.7,0,64.3,28,64.3,61.7c0,33.4-22.9,61.4-64.3,61.4h-48.8V390H780.5z"/>
		<path id="Fill-7" class="st0" d="M959.2,390V247.9h36.6v18.8c10-11.9,27.1-22.2,44.4-22.2v35.6c-2.7-0.5-5.8-0.7-10-0.7
			c-12.2,0-28.3,6.8-34.1,15.8v95.1h-36.8V390z"/>
		<path id="Fill-9" class="st0" d="M1162.7,317.1c0-21.5-12.7-40.2-35.6-40.2c-22.7,0-35.3,18.8-35.3,40.2
			c0,21.9,12.7,40.5,35.3,40.5C1150.1,357.6,1162.7,338.8,1162.7,317.1 M1053.8,317.1c0-39.2,27.5-72.6,73.1-72.6
			c46.1,0,73.6,33.4,73.6,72.6S1173,390,1126.9,390C1081.3,390,1053.8,356.4,1053.8,317.1"/>
		<path id="Fill-11" class="st0" d="M1323.4,341.7v-49c-6.1-9.3-19.3-15.8-31.2-15.8c-21,0-35.3,16.3-35.3,40.2
			c0,24.1,14.4,40.5,35.3,40.5C1304.1,357.6,1317.3,351,1323.4,341.7L1323.4,341.7z M1323.4,390v-21.2c-11,13.9-25.8,21.2-42.9,21.2
			c-34.9,0-61.4-26.3-61.4-72.9c0-45.1,26.1-72.6,61.4-72.6c16.3,0,31.9,6.8,42.9,21.2V195h36.8v195H1323.4z"/>
		<path id="Fill-13" class="st0" d="M1489.9,390v-21c-9.5,10.2-26.1,21-48.8,21c-30.5,0-44.9-16.6-44.9-43.6v-98.5h36.6V332
			c0,19.3,10,25.6,25.6,25.6c14.1,0,25.4-7.8,31.7-15.8v-93.8h36.6V390H1489.9z"/>
		<path id="Fill-15" class="st0" d="M1553.7,317.1c0-42.4,31-72.6,73.6-72.6c28.5,0,45.6,12.4,54.8,25.1l-23.9,22.4
			c-6.6-9.8-16.6-14.9-29.3-14.9c-22.2,0-37.5,16.1-37.5,40.2c0,24.1,15.6,40.5,37.5,40.5c12.7,0,22.7-5.8,29.3-15.1l23.9,22.4
			c-9.3,12.7-26.3,25.3-54.8,25.3C1584.7,390,1553.7,359.8,1553.7,317.1"/>
		<path id="Fill-17" class="st0" d="M1713.6,351.7v-72.1h-22.9v-31.9h22.9v-37.8h36.6v38h28v31.9h-28v62.4c0,9,4.6,15.6,12.7,15.6
			c5.4,0,10.7-1.9,12.7-4.4l7.8,27.8c-5.4,4.9-15.1,9-30.5,9C1727,390,1713.6,376.8,1713.6,351.7"/>
		<path id="Fill-19" class="st0" d="M2011.7,390v-84.1h-90.4V390h-40.7V195h40.7v75.3h90.4V195h41.2v195H2011.7z"/>
		<path id="Fill-21" class="st0" d="M2183.3,390v-21c-9.5,10.2-26.1,21-48.8,21c-30.5,0-44.9-16.6-44.9-43.6v-98.5h36.6V332
			c0,19.3,10,25.6,25.6,25.6c14.1,0,25.4-7.8,31.7-15.8v-93.8h36.6V390H2183.3z"/>
		<path id="Fill-23" class="st0" d="M2349.6,390v-87.3c0-19.3-10-25.8-25.6-25.8c-14.4,0-25.4,8-31.7,16.1v97h-36.6V247.9h36.6v17.8
			c9-10.2,26.1-21.2,48.5-21.2c30.7,0,45.3,17.3,45.3,44.1V390H2349.6z"/>
		<path id="Fill-25" class="st0" d="M2430,351.7v-72.1h-22.9v-31.9h22.9v-37.8h36.6v38h28v31.9h-28v62.4c0,9,4.6,15.6,12.7,15.6
			c5.4,0,10.7-1.9,12.7-4.4l7.8,27.8c-5.4,4.9-15.1,9-30.5,9C2443.4,390,2430,376.8,2430,351.7"/>
	</g>
</g>
</svg>
