<?xml version="1.0" encoding="utf-8"?>
<!-- Generator: Adobe Illustrator 24.2.3, SVG Export Plug-In . SVG Version: 6.00 Build 0)  -->
<svg version="1.1" id="Calque_1" xmlns="http://www.w3.org/2000/svg" xmlns:xlink="http://www.w3.org/1999/xlink" x="0px" y="0px"
	 viewBox="0 0 1196.2 374.2" style="enable-background:new 0 0 1196.2 374.2;" xml:space="preserve">
<style type="text/css">
	.st0{fill:#A9A9A9;}
</style>
<path class="st0" d="M147.9,0c9.1,1.7,18.4,2.7,27.3,5.2c18.1,5,33.6,14.2,45.6,29c13,16,16.4,33.9,10.9,53.5
	c-3.2,11.6-9.1,21.8-17.1,30.7c-5.5,6.1-12.1,10.5-20.2,12c-8.9,1.7-15.4-3.7-13.6-12.6c1.4-7,4.8-13.7,7.5-20.4
	c2.8-6.9,6.7-13.5,8.6-20.6c3.1-11.5-1.3-20.9-10.6-28c-7.9-6-17.1-8.9-26.7-10.3c-17.1-2.6-34.2-3.4-50.8,2.6
	c-6.3,2.3-12.6,5.5-17.8,9.7C76.2,62.4,74.6,80.4,86.4,95c9.4,11.7,22.1,19.1,35,26c20.5,11,41.5,21.3,61.5,33
	c18.3,10.7,32.8,25.6,40.7,47.5c1.3-6.4,2.1-11.5,3.3-16.6c3.7-15.6,9.5-30.2,21.1-41.8c15.6-15.9,43.3-20.1,62.9-9.5
	c13.9,7.5,20.6,20.2,23.5,34.9c2.1,10.2,2.4,20.8,3.4,31.2c0.3,3.1,0,6.3-0.6,9.2c3.7-11.6,6.6-23.4,11.2-34.6
	c6.1-14.9,15.8-27.4,30.2-35.5c12.2-6.9,25.2-8.6,38.6-5.2c24.9,6.3,37,31.7,26.8,56c-8.7,20.7-25,33.6-44.6,43
	c-5.7,2.7-11.7,4.7-17.5,7c4.5,12.4,14.3,17.2,29.5,14.2c12.7-2.5,24.3-8,35.3-14.6c2.9-1.8,6.2-2.9,10.1-4.7
	c0-7.6-0.8-16.5,0.2-25.1c2.5-22,10.3-42,25.3-58.6c16.7-18.4,40.6-24,61.2-14.7c20.7,9.2,28.6,33.7,17.1,53
	c-4.7,8-12.2,11.9-19.8,10.5c-4.4-0.8-7.3-3.1-8.1-7.6c-0.4-2.3-0.8-4.6-0.9-6.9c-0.1-4,0.3-8,0.3-12c0-10.3-3.4-12.5-13-8.4
	c-7,3-11.5,8.7-14.1,15.5c-7.2,18.4-9.8,37.4-5.4,56.8c4,17.6,18.2,25.5,34.9,18.9c9.1-3.6,17.8-9,25.7-15
	c10.8-8.1,20.7-17.3,30.7-26.3c1.5-1.3,2.7-4,2.6-5.9c-2.6-31.4,0.6-62.6,1.8-93.9c0-0.5-0.1-1-0.3-2c-2-0.2-4.1-0.4-6.2-0.5
	c-14.6-1.1-29.2-1.8-43.8-3.3c-8-0.8-11.3-4.6-12.3-12.1c-0.9-7,1.9-10.6,9-10.7c16.2-0.1,32.3,0.1,48.5,0.1c3.6,0,7.3,0,11.3,0
	c2.1-13.9,3.8-27.4,6.2-40.8c1.8-9.8,4-19.6,6.9-29.1c3.1-10.2,17.6-15.3,27.2-10c4,2.2,3.7,6.2,3.2,9.8c-1.4,9.7-3.3,19.4-4.9,29.1
	c-1.9,12.3-3.7,24.7-5.5,37.1c-0.2,1.4,0,2.9,0,5.1c1.9,0,3.7,0,5.5,0c24.1,0.4,48.3,0.7,72.4,1.1c8.3,0.1,10.3,2.1,10.7,10.3
	c0.4,7.3-3.8,13.1-10.3,13.5c-15.5,0.8-30.9,1.4-46.4,1.7c-11,0.3-21.9,0.1-32.9,0.1c-0.5,2.4-0.8,3.5-0.9,4.6
	c-1.2,32-2.4,64-3.3,96c-0.2,6.5,0,13.1,1.3,19.4c2.8,14.7,14.4,22.3,28.5,17.7c10.9-3.6,21.1-9.5,31.5-14.6
	c1.2-0.6,1.9-2.9,2.2-4.5c4.6-25.7,9.1-51.4,13.8-77.1c1-5.2,3.1-10.2,4.9-15.2c2-5.4,5.9-8,11.8-8.2c13.7-0.4,14.7,0.5,14.8,14.4
	c0,9,0.1,18,0.2,27c0,1.6,0.2,3.2,1.5,5.1c0.9-1.4,1.9-2.7,2.7-4.1c4.8-8.4,9-17.1,14.5-25c6.2-8.9,13.9-16.4,25.6-17.2
	c13.3-0.9,20.3,6.9,18.2,20.1c-1.3,8.4-3.3,16.7-4,25.1c-0.5,6.2-0.2,12.7,1.1,18.7c1.6,6.9,6.1,9.6,13,9.1c4.6-0.4,9.2-1.5,13.5-3
	c1.4-0.5,2.4-3.2,2.8-5c2.2-10.8,3.4-21.8,6.3-32.3c2.1-7.7,5.5-15.4,9.7-22.2c6.3-10.2,16.1-12.9,27.5-9.2c4.9,1.6,5.9,3.6,5,9.1
	c-5,30.9-10,61.8-15,92.7c-0.1,0.7-0.3,1.3-0.3,2c0.4,5.4,0.6,11.1,5.9,14.1c5.4,3,10.4,0.3,14.8-3c8.4-6.3,12-15.3,14-25.2
	c5.2-26.3,10.3-52.6,15.2-78.9c0.9-4.8,3.3-7.9,7.6-9.7c7.4-3,14.9-3.4,22.5-1.1c6.5,1.9,9.1,5.7,8,12.4
	c-3.8,24.3-8.2,48.6-11.8,72.9c-1.3,8.6-1.3,17.6-0.7,26.3c0.5,6.7,4.3,8.9,10.9,7.3c6.4-1.6,12.5-4.2,18.2-6.1
	c2.4-17.8,4.2-35,7.3-52c2.9-16.2,6.6-32.3,10.9-48.2c3.6-13.4,16.8-18.9,29.4-12.7c2.2,1,4.2,5,4.1,7.5
	c-0.7,13.3-2.1,26.5-3.4,39.8c-0.5,4.8-1.6,9.5-2.2,14.3c-0.2,1.3,0.3,2.7,0.4,4.1c0.4,0.1,0.8,0.2,1.2,0.3c1-1.6,2.1-3.1,3-4.7
	c9.5-15.5,18.7-31.1,28.4-46.4c2.6-4.2,6.3-7.8,9.8-11.3c4.9-4.8,11.2-5.7,17.7-4.6c7.5,1.4,12.8,7.1,11.9,14.9
	c-1.5,12.9-4.1,25.6-6.3,38.3c-0.5,3.1-1.5,6.1-2,9.3c-0.2,1.3,0.3,2.8,0.5,4.2c0.4,0.1,0.9,0.1,1.3,0.2c1-1.5,1.9-3,2.9-4.4
	c9.7-15.2,19.2-30.4,29.1-45.4c2.7-4.2,6-8,9.4-11.6c5.8-6.1,13.7-7.6,21.5-4.4c6.7,2.7,10.1,7.5,9.5,15.4
	c-1.1,14.8-3.1,29.5-4.2,44.2c-1.2,14.9-1.8,29.8-2.6,44.8c0,0.7,0.1,1.3,0.2,2c2.1,10.4,6.5,13.2,15.8,8.2
	c8.1-4.4,15.5-10.2,22.6-16.1c5.2-4.3,11-3.5,13,3.3c3.1,10.3,2.6,20.9-5.6,28.4c-16.1,14.6-34.4,25-57,25.6
	c-7.3,0.2-12.9-2.9-15.1-9.3c-3-8.7-6-17.9-6.3-27c-0.5-18.1,0.8-36.3,1.4-54.4c0.1-1.8,0-3.6,0-5.4c-0.4-0.2-0.9-0.5-1.3-0.7
	c-0.9,1.6-2.1,3.1-2.7,4.7c-10.2,25.9-20.3,51.7-30.5,77.6c-3.5,8.8-10,13.5-19.3,14.2c-9.2,0.7-14.8-2.3-16.5-11.5
	c-1.8-9.5-2.5-19.5-1.6-29.2c1.5-16.9,4.7-33.6,7.1-50.4c0.2-1.4,0.2-2.9,0.2-4.4c-0.4-0.3-0.9-0.5-1.3-0.8c-1.4,1.7-3,3.3-4,5.3
	c-6.4,13-12.7,26-19,39c-6.7,13.8-13.2,27.6-20.1,41.3c-4.3,8.6-10.6,11.8-20,10.7c-6.6-0.7-10.1-3.7-15.1-12.9
	c-5.4,2.2-10.8,4.8-16.4,6.5c-6.7,2-13.5,3.8-20.4,4.5c-12.7,1.3-20.1-3.3-25.2-15c-2.4-5.5-4-11.3-6.2-17.6
	c-1.2,1.4-2.4,2.6-3.5,3.9c-8.2,9.8-17.1,18.8-28.5,24.8c-5.1,2.7-10.7,5-16.3,5.8c-16.6,2.3-27.6-6.2-29.8-23.2
	c-1.1-8-0.5-16.3-0.6-24.4c0-1.6,0.2-3.2,0.2-3.5c-3.5,1.2-7.1,2.9-10.9,3.5c-17.4,3-31.9-4.1-38.6-20.4c-4.1-9.9-5.5-20.8-8.3-31.2
	c-0.4-1.6-1.3-3.1-2-4.6c-1,1.3-2.4,2.5-3,4c-9.4,26.1-18.7,52.3-28.2,78.5c-1.6,4.4-3.5,8.6-5.6,12.8c-2.8,5.6-7,9.1-13.8,8.8
	c-7-0.4-12.1-3.4-15.2-9.6c-1.4-2.8-2.2-5.8-3.5-9.2c-4.4,2.3-8.5,4.7-12.9,6.6c-7.9,3.5-15.7,7.4-23.9,10c-18.2,5.7-34,0.2-44-16.2
	c-5.7-9.4-9.6-20-14.4-30.4c-0.8,0.8-2.4,2.2-3.9,3.6c-13.1,12.3-25.6,25.3-41.4,34.5c-19,11-38.8,14.6-59.7,5.7
	c-9.1-3.8-16.5-9.9-22.4-17.9c-0.8-1.1-1.6-2.2-2.4-3.2c-0.2-0.2-0.6-0.2,0.2,0.1c-3.7,3-6.6,6.2-10.2,8.1
	c-14.8,8.1-30.2,14.6-47.1,17.1c-37,5.6-67.2-17.4-71.4-54.7c-0.7-5.9-1-11.9-1.3-16.3c-2.2,8.6-4.4,18.7-7.4,28.5
	c-6,19.4-19.8,29.3-39.7,31.2c-9.4,0.9-18.9,1.5-28.3,2.7c-8.1,1-10.1,2.8-11.2,10.9c-1.4,9.9-2.5,19.8-3,29.8
	c-0.6,11.3-0.6,22.7-0.5,34c0.1,9.4-2.9,16.6-12.5,19.7c-2.3,0-4.7,0-7,0c-9.4-3.1-10.3-10.5-9.4-18.8c0-0.3,0.1-0.7,0.1-1
	c3.7-34.4,5.1-68.8,4.4-103.3c0-1.3-0.2-2.7-0.3-4c-7.7,18.5-20.3,32.3-36.9,42.6c-19.2,11.9-40.4,17.8-62.7,19.8
	c-27.9,2.4-54.9-0.8-80-13.9c-21.7-11.3-37-28.1-41.5-53.1c-0.6-3.4-1-6.9-1.5-10.3c0-1.7,0-3.3,0-5c0.4-1.8,0.8-3.6,1-5.3
	c1.4-10.5,5.9-19.4,13.7-26.5c5.7-5.2,12.4-8.5,20.3-8.1c6.8,0.3,11,4.4,10.7,11.2c-0.3,5.4-1.4,10.9-2.4,16.2
	c-5.6,28.6,6.5,48,34.8,55.6c18.4,5,36.9,4.4,55.3,0c14.8-3.6,28.3-9.7,39.1-20.9c15.4-16,16.1-37.7,1.6-54.6
	c-8.9-10.3-20-17.6-31.7-23.9c-14.5-7.8-29.2-15.2-43.7-23C83.3,139.7,68.3,131,56,118.5c-24.8-25-25.5-60.2-1.5-86
	c14.5-15.6,33-24,53.4-28.3C118,2,128.5,1.3,138.9,0C141.9,0,144.9,0,147.9,0z M256.3,220.5c0.5,0.1,0.9,0.1,1.4,0.2
	c0,6.7,0.2,13.3-0.1,20c-0.1,3.2,1,4.6,4.2,4.5c5.2-0.1,10.3,0.3,15.5-0.1c15.5-1.1,24.9-8.7,28.9-23.1c3.2-11.6,3.5-23.4,1.3-35.2
	c-1.6-9-6.3-15.7-15.2-18.8c-13.5-4.7-27.6,2.6-31.5,18C258.1,197.2,257.8,209,256.3,220.5z M377.2,213.3c5.9-2,10.8-3.2,15.4-5.3
	c9.2-4.3,16.9-10.6,22.3-19.4c4.4-7,3-18.9-2.3-23.7c-3.9-3.4-12.6-2.7-19.4,2.6C378.6,178.9,378.1,195.4,377.2,213.3z"/>
<path class="st0" d="M632.3,332.2c2.3,0.1,3.7,0.2,5.7,0.3c0,12,0,23.8-0.1,35.6c0,0.9-1.3,2.5-1.7,2.4c-1.6-0.3-3.8-0.7-4.6-1.9
	c-4.5-6.4-8.7-13-13-19.5c-1-1.5-2-2.9-4-4.1c0,8.3,0,16.7,0,25.2c-2.9,0.6-5.4,1.4-5.4-2.4c-0.1-11.6,0-23.2,0-34.8
	c3.6-1.6,5.4-0.4,7.2,2.4c4.8,7.7,9.9,15.2,15.9,22.5C632.3,349.6,632.3,341.2,632.3,332.2z"/>
<path class="st0" d="M373.3,353.9c2.8,5.4,5.5,10.7,8.3,16.2c-3.9,1.3-6.4,0.9-7.9-3c-1-2.6-2.8-5-3.7-7.6
	c-1.7-4.8-4.7-6.6-10.1-4.7c0,4.8,0,9.9,0,15.1c-2.9,0.8-5.7,2.3-5.7-2.1c-0.2-11.6-0.1-23.3-0.1-35.3c6.3,0,12.3-0.5,18.1,0.2
	c4.4,0.5,7.5,3.6,8.3,8.2c0.8,4.6-0.2,8.6-4.5,11.3C375.2,352.7,374.4,353.2,373.3,353.9z M359.9,349.7c5.3-0.8,10.8,1.9,14.3-3.1
	c1.1-1.5,0.9-5.2-0.3-6.7c-3.7-4.7-9-2.4-14-2.6C359.9,341.4,359.9,345.1,359.9,349.7z"/>
<path class="st0" d="M1167.8,353.7c2.9,5.7,5.5,10.9,8.3,16.4c-3.7,1.3-6.2,1-7.8-2.7c-1.3-3.2-3.3-6.2-4.5-9.4
	c-1.4-3.7-4.2-4.5-7.1-3.4c-1.3,0.5-2.1,3.4-2.5,5.3c-0.4,2.3-0.2,4.7-0.1,7c0.2,3.8-1.4,4.8-5,3.4c0-12.4,0-24.8,0-37.7
	c5.8,0,11.4-0.4,17,0.1c4.8,0.5,8.1,3.5,9,8.6C1176.2,347.1,1173.7,351.1,1167.8,353.7z M1154.6,337.2c0,4.2,0,8.1,0,12.3
	c3.3,0,6.3,0.1,9.2,0c3.7-0.2,6-2.1,6.1-5.8c0.1-4-2.4-6.1-6.1-6.4C1160.9,336.9,1157.9,337.2,1154.6,337.2z"/>
<path class="st0" d="M695,344.2c-1.8-1.1-4-1.9-5.2-3.5c-2.4-3.2-5.5-4.3-9.2-3.6c-3.8,0.8-5.7,3.6-6,7.1c-0.4,4.3-0.4,8.7-0.2,13
	c0.3,5.8,3.9,9.2,8.7,8.9c5.3-0.4,8-4.2,7.5-10.6c-7.6-1.8-7.6-1.8-7.4-5.1c4.1,0,8.2,0,12.8,0c0.7,6,1.4,11.9-3.5,16.6
	c-4.3,4.2-9.7,5.1-15.3,2.9c-4.4-1.7-7.7-4.9-7.9-9.9c-0.3-5.3-0.6-10.6-0.1-15.9c0.6-7.4,5.2-11.6,12.2-12
	c7.8-0.4,12.4,2.9,14.5,10.5C695.7,343.2,695.3,343.7,695,344.2z"/>
<path class="st0" d="M895,344.1c-1.6-1.1-3.7-1.8-4.8-3.3c-2.5-3.4-5.8-4.6-9.6-3.6c-3.6,0.9-5.5,3.7-5.6,7.4
	c-0.1,4.2-0.3,8.3-0.1,12.5c0.4,6.1,3.5,9.2,8.4,9c4.1-0.2,9.3-4.2,7.6-10.7c-2.4-0.5-5-0.8-7.4-1.5c-0.4-0.1-0.2-2.1-0.2-3.4
	c4.6,0,8.8,0,13,0c1.8,11.2-1.6,18-9.9,20.1c-8.7,2.2-16.6-3.5-17-12.5c-0.2-4.8-0.3-9.7,0.1-14.5c0.5-6.8,5.8-11.3,12.8-11.5
	c7.7-0.3,12.5,3.5,13.8,10.6C895.7,343.1,895.3,343.6,895,344.1z"/>
<path class="st0" d="M1056.1,370.2c0-5.6,0-10.7,0-16.1c-5.4,0-10.4,0-15.8,0c0,5.4,0,10.5,0,15.8c-2.6,0.8-5.3,2-5.4-1.7
	c-0.3-11.8-0.1-23.5-0.1-35.7c1.9-0.1,3.3-0.2,5.2-0.2c0,5.4,0,10.5,0,16.1c5.5,0,10.6,0,16.2,0c0-5.3,0-10.5,0-15.9
	c2.1,0,3.5,0,5.3,0c0,12.6,0,25.1,0,37.8C1059.8,370.2,1058.1,370.2,1056.1,370.2z"/>
<path class="st0" d="M927.7,332.4c8.7,0,16.1,0,24,0c0.1,1.4,0.2,2.8,0.4,4.7c-6.3,0-12.2,0-18.5,0c0,4,0,7.6,0,11.7
	c5,0,9.9,0,14.9,0c1.3,3.4,1.1,5.2-2.7,5.1c-4-0.1-7.9,0-12.2,0c0,4.1,0,7.7,0,12c5,0,9.9-0.1,14.8,0c3.7,0.1,3.7,0.2,3.1,4.9
	c-7,0-14.2,0.1-21.3-0.1c-0.9,0-2.4-1.5-2.4-2.3C927.6,356.4,927.7,344.5,927.7,332.4z"/>
<path class="st0" d="M412,332.4c8.2,0,15.8,0,23.8,0c0,1.5,0,2.9,0,4.7c-6.1,0-12,0-18.1,0c0,4.1,0,7.6,0,11.7c5.2,0,10.2,0,15.1,0
	c1.2,3.5,0.7,5.1-3,5c-3.9-0.1-7.9,0-12.2,0c0,4.1,0,7.7,0,12c4.9,0,9.6-0.2,14.4,0.1c1.4,0.1,2.8,1.4,4.1,2.2
	c-1.4,0.9-2.8,2.5-4.2,2.5c-6.6,0.3-13.2,0.1-20,0.1C412,357.7,412,345.3,412,332.4z"/>
<path class="st0" d="M1094.3,370.7c0-13.1,0-25.4,0-38.1c7.9,0,15.7,0,23.9,0c0.9,2.9,0.6,4.6-3.2,4.5c-4.8-0.2-9.6,0-14.8,0
	c0,3.9,0,7.4,0,11.9c4,0,8.1,0.1,12.2,0c3.3-0.1,4.1,1.4,2.9,4.7c-4.8,0-9.7,0-15.1,0c0,4.1,0,7.8,0,12.2c4.8,0,9.6-0.2,14.4,0.1
	c1.4,0.1,2.7,1.5,4,2.3c-1.3,0.8-2.6,2.4-3.9,2.4C1108.1,370.9,1101.5,370.7,1094.3,370.7z"/>
<path class="st0" d="M812.4,351.2c0-2.2-0.1-4.3,0-6.5c0.4-7.7,5.5-12.6,13.1-12.7c8-0.1,13.3,4.5,13.8,12.4c0.3,5,0.3,10-0.1,14.9
	c-0.5,6.8-6.1,11.5-13.2,11.6c-7,0.1-12.8-4.7-13.5-11.3C812.2,356.9,812.5,354,812.4,351.2C812.4,351.2,812.4,351.2,812.4,351.2z
	 M834.5,351.7c-0.3-3-0.4-6.2-1.1-9.2c-0.9-3.9-3.8-5.7-7.8-5.6c-4,0.1-7,2.2-7.3,6.1c-0.5,5.6-0.5,11.3,0,16.9c0.3,4,3.6,6,7.4,6.1
	c3.8,0.1,6.8-1.8,7.7-5.7C834,357.6,834.1,354.7,834.5,351.7z"/>
<path class="st0" d="M462.1,370c1.5-4,2.9-7.9,4.3-11.7c2.8-7.8,5.6-15.6,8.6-23.3c0.4-1.1,1.8-2.4,2.9-2.5c1.1-0.1,2.9,1,3.3,2
	c4.5,11.8,8.7,23.6,13.1,35.7c-3.7,1.4-6.1,1-6.8-3c-0.6-3.5-2.7-4.5-6-4.1c-2,0.2-4,0.3-6,0c-3.7-0.5-6,0.8-6.7,4.6
	C468,371.3,465.6,371.2,462.1,370z M484.3,358c-2-5.7-3.8-11-6.1-17.6c-2.3,6.8-4.2,12-6.1,17.6C476.5,358,480.1,358,484.3,358z"/>
<path class="st0" d="M323.5,359.8c-1,6.7-5.4,10.8-12,11.2c-6.4,0.4-12.9-3.3-13.7-9.2c-0.9-6.8-0.9-13.9,0-20.8
	c0.8-6,6.7-9.3,13.7-9c6.5,0.3,10.5,3.8,12,10.6c-2.8,1.2-4.7,1-6.4-2.1c-1.9-3.6-5.7-4.8-9-3.2c-2.4,1.2-4.9,4.3-5.3,6.9
	c-0.9,4.7-0.4,9.6-0.2,14.4c0.2,3.7,2.3,6.9,5.9,6.9c2.9,0,6.7-1.3,8.4-3.4C319.1,359.6,320.7,358.8,323.5,359.8z"/>
<path class="st0" d="M785.6,332.2c-0.2,8.7-7.3,2.4-10.3,7c0,9.1,0,20,0,31.2c-2.1,0-3.7,0-5.6,0c0-11,0-21.7,0-33.1
	c-3.6,0-6.8,0-10.1,0c-0.9-3-1.5-5.1,2.3-5.1C769.5,332.3,777.1,332.2,785.6,332.2z"/>
<path class="st0" d="M995.2,370.1c-4.4,1.3-5.8,0.2-5.7-3.6c0.2-9.6,0.1-19.2,0.1-29.3c-3.5,0-6.6,0-9.8,0c-1-3.2-1.1-5.1,2.8-5.1
	c7.5,0.2,14.9,0,22.9,0c0.2,1.5,0.3,2.8,0.5,4.6c-3.6,0.2-6.9,0.3-10.7,0.5C995.2,348.3,995.2,359.2,995.2,370.1z"/>
<path class="st0" d="M526.3,337.2c-3.8,0-6.8,0-10.2,0c-0.2-1.6-0.3-2.9-0.5-4.6c8.9,0,17.5,0,26.5,0c0.1,1.3,0.2,2.6,0.3,4.3
	c-3.6,0.2-6.9,0.3-10.8,0.5c0,6.9,0,13.5,0,20.1c0,2.8,0.1,5.7,0,8.5c-0.1,1.9,1.2,4.8-2.5,4.8c-4,0.1-2.7-3-2.8-5.1
	c-0.1-7.5-0.1-14.9-0.1-22.4C526.3,341.4,526.3,339.6,526.3,337.2z"/>
<path class="st0" d="M571.6,332.5c1.7,0,3,0,4.4,0c0.2,0.6,0.6,1.2,0.6,1.8c0.1,11,0.2,21.9,0,32.9c0,1.2-1.7,2.4-2.7,3.6
	c-0.8-1.1-2.4-2.2-2.4-3.3c-0.2-10.3-0.1-20.6-0.1-30.9C571.4,335.4,571.5,334.2,571.6,332.5z"/>
</svg>
